<svg xmlns="http://www.w3.org/2000/svg" width="50" height="50" viewBox="0 0 50 50">
	<defs>
		<linearGradient id="gradient1" x1="0" x2="1" y1="0" y2="1">
			<stop offset="5%" stop-color="#099268"></stop>
			<stop offset="85%" stop-color="#1971c2"></stop>
		</linearGradient>
	</defs>
	<path fill="url(#gradient1)" d="M49.38,49.53 L36.38,49.53 L9.36,22.49 C9.22,23.67 9.16,24.42 9.16,24.72 C9.16,28.49 10.37,31.81 12.79,34.69 C15.21,37.56 18.23,39.34 21.84,40.01 L30.55,48.77 C28.6,49.23 26.65,49.47 24.72,49.47 C21.37,49.47 18.18,48.82 15.13,47.51 C12.08,46.2 9.45,44.44 7.24,42.23 C5.02,40.02 3.26,37.38 1.96,34.32 C0.65,31.26 0,28.06 0,24.72 C0,21.38 0.63,18.27 1.89,15.29 C3.15,12.31 4.9,9.68 7.14,7.4 C21.22,21.44 35.31,35.49 49.39,49.53 L49.38,49.53 Z M24.71,9.17 C21.77,9.17 19.02,9.96 16.47,11.55 L9.88,4.96 C14.24,1.65 19.18,0 24.71,0 C28.06,0 31.26,0.65 34.31,1.96 C37.37,3.27 40,5.03 42.22,7.24 C44.43,9.46 46.2,12.09 47.5,15.13 C48.81,18.18 49.46,21.37 49.46,24.72 C49.46,30.25 47.8,35.21 44.47,39.58 L37.91,32.99 C39.5,30.44 40.29,27.68 40.29,24.72 C40.29,20.45 38.77,16.78 35.72,13.74 C32.67,10.69 29,9.17 24.71,9.17 L24.71,9.17 Z">
	</path>
</svg>